<svg width="32" height="32" viewBox="0 0 32 32" fill="none" xmlns="http://www.w3.org/2000/svg">
<g clip-path="url(#clip0_3293_82)">
<path d="M9.14215 11.5563L6.31373 8.72792L19.0416 -4L21.8701 -1.17157L9.14215 11.5563Z" fill="#FAA21E"/>
<path d="M23.2843 25.6985L20.4558 22.87L33.1838 10.1421L36.0122 12.9705L23.2843 25.6985Z" fill="#FAA21E"/>
<path fill-rule="evenodd" clip-rule="evenodd" d="M8.86474 31.6327L20.456 28.5267L17.1891 25.2612L10.0601 27.1712L4.8403 21.9515L6.75032 14.8224L3.48548 11.5562L0.379456 23.1475L8.86474 31.6327Z" fill="#FAA21E"/>
<path d="M9.17158 17.1716L13.0353 16.1363L15.8637 18.9647L14.8284 22.8284L10.9647 23.8637L8.1363 21.0353L9.17158 17.1716Z" fill="#FAA21E"/>
<path d="M33.4141 1.41406L19.4141 15.4141L16.5859 12.5859L30.5859 -1.41406L33.4141 1.41406Z" fill="#FAA21E"/>
</g>
<defs>
<clipPath id="clip0_3293_82">
<rect width="32" height="32" fill="white"/>
</clipPath>
</defs>
</svg>
